<svg width="800" height="800" viewBox="0 0 800 800" fill="none" xmlns="http://www.w3.org/2000/svg">
  <defs>
    <!-- Brighter gradient for dark backgrounds -->
    <linearGradient id="haitiGradientBright" x1="0" y1="0" x2="1" y2="1">
      <stop offset="0%" stop-color="#33A0FF"></stop>
      <stop offset="100%" stop-color="#9A66FF"></stop>
    </linearGradient>

    <linearGradient id="textGradientHaiti" x1="0" y1="0" x2="1" y2="0">
      <stop offset="0%" stop-color="#4DB3FF"></stop>
      <stop offset="100%" stop-color="#A47BFF"></stop>
    </linearGradient>

    <linearGradient id="textGradientVote" x1="0" y1="0" x2="1" y2="0">
      <stop offset="0%" stop-color="#A47BFF"></stop>
      <stop offset="100%" stop-color="#D0B6FF"></stop>
    </linearGradient>
  </defs>

  <!-- Haiti Map (brighter gradient for dark bg) -->
  <path d="M272.3 247.2c-21.8-.2-52.4 16.2-68.3 33.4-15.5 16.8-33.8 38.4-33.6 53.8.3 18.4 16.8 37.3 29.4 50.6 10.4 11.2 20.3 23.7 19.5 36.3-.7 13.2-13.1 27.1-20.2 36.8-8.4 11.5-11 25.1-5 36.4 6.2 11.8 21.1 19.7 36.4 19.6l154.2-1.1c18.4-.1 35.6-10.9 39.7-27l11.6-44.8c3.1-12 13.5-21.6 26.6-24.9l70.4-17.5c15.5-3.8 27.8-16 30.2-30.7l7.4-47.1c2.9-18.3-13.9-34.6-36.5-35.7l-231.8-11.1z" fill="url(#haitiGradientBright)"></path>

  <!-- Checkmark (white for contrast) -->
  <path d="M430 330l50 55 105-115" stroke="white" stroke-width="40" stroke-linecap="round" stroke-linejoin="round"></path>

  <!-- Text HaitiVote (light gradient for dark bg) -->
  <text x="200" y="650" font-family="Inter, Segoe UI, sans-serif" font-size="150" font-weight="700">
    <tspan fill="url(#textGradientHaiti)">Haiti</tspan>
    <tspan fill="url(#textGradientVote)">Vote</tspan>
  </text>
</svg>
